<?xml version="1.0" encoding="utf-8"?>
<!-- Generator: Adobe Illustrator 16.0.0, SVG Export Plug-In . SVG Version: 6.00 Build 0)  -->
<!DOCTYPE svg PUBLIC "-//W3C//DTD SVG 1.1//EN" "http://www.w3.org/Graphics/SVG/1.1/DTD/svg11.dtd">
<svg version="1.1" id="Layer_1" xmlns="http://www.w3.org/2000/svg" xmlns:xlink="http://www.w3.org/1999/xlink" x="0px" y="0px"
	 width="500px" height="500px" viewBox="0 0 500 500" enable-background="new 0 0 500 500" xml:space="preserve">
<rect x="-0.289" y="-0.042" display="none" fill-rule="evenodd" clip-rule="evenodd" fill="#FFFFFF" width="500" height="500"/>
<path fill-rule="evenodd" clip-rule="evenodd" fill="#0B0B0B" d="M152.416,83.394c14.269,0,28.618-0.955,42.787,0.236
	c19.382,1.628,26.513,14.525,19.447,32.726c-9.247,23.82-5.695,35.789,13.348,44.991c20.507,9.911,49.964,3.543,59.179-13.231
	c4.976-9.062,3.796-18.235-0.236-27.826c-10.409-24.76-2.53-36.549,24.448-36.95c23.993-0.354,48.025,0.636,71.987-0.3
	c18.75-0.734,23.836,7.552,21.699,24.874c-3.004,24.439-5.045,49.016-6.788,73.585c-1.337,18.855,4.745,23.013,21.26,14.05
	c19.657-10.668,38.679-11.634,56.106,2.853c20.83,17.322,27.038,40.712,21.628,66.631c-4.809,23.049-17.597,40.419-41.629,46.418
	c-12.447,3.107-24.081-0.764-35.435-6.681c-17.691-9.22-23.406-5.258-21.884,14.986c1.901,25.212,4.171,50.406,6.903,75.538
	c1.627,14.963-3.882,21.823-19.27,21.567c-25.939-0.427-51.906,0.434-77.827-0.288c-23.216-0.651-31.829-13.776-22.338-34.541
	c7.201-15.748,6.209-28.754-7.566-39.617c-14.29-11.264-42.019-11.443-56.612-0.342c-13.928,10.595-15.435,23.542-8.234,39.414
	c9.62,21.217,1.499,34.355-21.512,35.056c-26.569,0.806-53.183,0.024-79.776,0.262c-14.602,0.128-19.387-7.014-17.941-20.856
	c2.7-25.791,5.137-51.619,6.978-77.482c1.344-18.834-4.751-22.971-21.301-13.983c-19.664,10.676-38.688,11.592-56.099-2.904
	C2.921,284.251-3.274,260.861,2.152,234.941c4.825-23.056,17.623-40.404,41.66-46.388c12.456-3.101,24.081,0.798,35.429,6.703
	c17.681,9.208,23.373,5.235,21.843-15.046c-1.898-25.208-4.166-50.402-6.902-75.535c-1.631-15,3.961-22.012,19.318-21.499
	c12.958,0.434,25.942,0.091,38.916,0.091C152.416,83.311,152.416,83.353,152.416,83.394z M304.935,395.046
	c22.995,0,45.67-0.4,68.313,0.185c9.923,0.258,9.967-4.751,9.338-12.052c-1.788-20.687-3.493-41.385-4.666-62.113
	c-2.142-37.845,18.057-51.581,51.777-35.067c9.267,4.538,18.271,6.718,27.806,2.461c17.98-8.023,25.586-38.349,15.324-59.924
	c-9.443-19.848-23.535-23.68-46.597-12.668c-28.207,13.468-49.992-0.165-48.652-31.064c0.989-22.682,3.097-45.314,5.008-67.947
	c0.611-7.271,0.638-12.331-9.314-12.071c-22.649,0.585-45.317,0.186-68.305,0.186c10.309,37.95,6.483,55.126-15.037,70.333
	c-23.309,16.473-57.029,16.473-80.441,0c-21.563-15.173-25.417-32.536-14.975-70.345c-6.117,0-11.895-0.003-17.673,0
	c-16.879,0.004-33.777,0.476-50.63-0.167c-9.882-0.38-10.009,4.665-9.381,12.012c1.88,21.982,3.799,43.972,4.902,65.999
	c1.672,33.328-20.099,47.32-50.2,32.106c-10.503-5.311-20.725-7.978-31.335-2.461c-17.46,9.082-23.738,40.229-12.796,60.813
	c9.786,18.413,23.234,21.645,45.709,10.968c29.041-13.789,50.253,0.356,48.629,32.913c-1.101,22.029-3.036,44.023-4.897,66.005
	c-0.612,7.251-0.678,12.344,9.298,12.086c22.646-0.59,45.317-0.185,68.308-0.185c-10.384-37.722-6.524-55.08,15.018-70.312
	c23.321-16.488,57.134-16.5,80.466-0.024C311.517,339.961,315.414,357.461,304.935,395.046z"/>
</svg>
